<mxfile host="drawio-plugin" agent="Mozilla/5.0 (Windows NT 10.0; Win64; x64) AppleWebKit/537.36 (KHTML, like Gecko) Chrome/122.0.0.0 Safari/537.36" modified="2025-02-27T16:29:00.152Z" version="22.1.22" etag="BdtQxQ6BaoWTCK_oOkLr" type="embed">
  <diagram name="Page-1" id="OVcS8Alv_T-uJs1jZaDE">
    <mxGraphModel dx="1352" dy="683" grid="1" gridSize="10" guides="0" tooltips="1" connect="1" arrows="1" fold="1" page="1" pageScale="1" pageWidth="850" pageHeight="1100" background="none" math="0" shadow="0">
      <root>
        <mxCell id="0" />
        <mxCell id="1" parent="0" />
        <mxCell id="54" value="&lt;font style=&quot;font-size: 17px;&quot;&gt;n&lt;/font&gt;" style="text;strokeColor=none;align=center;fillColor=none;html=1;verticalAlign=middle;whiteSpace=wrap;rounded=0;" parent="1" vertex="1">
          <mxGeometry x="200" y="50" width="60" height="30" as="geometry" />
        </mxCell>
        <mxCell id="65" value="&lt;font size=&quot;1&quot; style=&quot;&quot;&gt;&lt;b style=&quot;font-size: 40px;&quot;&gt;Library Service&lt;/b&gt;&lt;/font&gt;" style="text;strokeColor=none;align=center;fillColor=none;html=1;verticalAlign=middle;whiteSpace=wrap;rounded=0;" parent="1" vertex="1">
          <mxGeometry x="360" y="10" width="640" height="80" as="geometry" />
        </mxCell>
        <mxCell id="71" value="&lt;font style=&quot;font-size: 20px;&quot;&gt;User&lt;/font&gt;" style="swimlane;whiteSpace=wrap;html=1;fontSize=15;startSize=40;fillColor=#FFCCCC;" parent="1" vertex="1">
          <mxGeometry x="760" y="140" width="230" height="350" as="geometry">
            <mxRectangle x="510" y="110" width="100" height="30" as="alternateBounds" />
          </mxGeometry>
        </mxCell>
        <mxCell id="72" value="&lt;div&gt;&lt;u&gt;id&lt;/u&gt;: int&lt;/div&gt;&lt;div&gt;&lt;span style=&quot;background-color: initial;&quot;&gt;&lt;br&gt;&lt;/span&gt;&lt;/div&gt;&lt;div&gt;email: str&lt;/div&gt;&lt;div&gt;&lt;br&gt;&lt;/div&gt;&lt;div&gt;first_name: str&lt;/div&gt;&lt;div&gt;&lt;br&gt;&lt;/div&gt;&lt;div&gt;last_name: str&lt;/div&gt;&lt;div&gt;&lt;br&gt;&lt;/div&gt;&lt;div&gt;password: str&lt;/div&gt;&lt;div&gt;&lt;br&gt;&lt;/div&gt;&lt;div&gt;is_staff: bool&lt;/div&gt;&lt;div&gt;&lt;br&gt;&lt;/div&gt;&lt;div&gt;tg_chat: int (default Null)&lt;/div&gt;" style="text;html=1;align=left;verticalAlign=bottom;resizable=0;points=[];autosize=1;strokeColor=none;fillColor=none;fontSize=17;horizontal=1;fontFamily=Tahoma;" parent="71" vertex="1">
          <mxGeometry x="20" y="50" width="210" height="280" as="geometry" />
        </mxCell>
        <mxCell id="10kvHSesLPqrHhUto0nE-82" value="" style="group" parent="1" vertex="1" connectable="0">
          <mxGeometry x="140" y="140" width="440" height="380" as="geometry" />
        </mxCell>
        <mxCell id="33" value="&lt;font style=&quot;font-size: 20px;&quot;&gt;Book&lt;/font&gt;" style="swimlane;whiteSpace=wrap;html=1;fontSize=15;startSize=40;fillColor=#FFE669;" parent="10kvHSesLPqrHhUto0nE-82" vertex="1">
          <mxGeometry x="190" width="250" height="380" as="geometry">
            <mxRectangle x="510" y="110" width="100" height="30" as="alternateBounds" />
          </mxGeometry>
        </mxCell>
        <mxCell id="34" value="&lt;div&gt;id: int&lt;/div&gt;&lt;div&gt;&lt;span style=&quot;background-color: initial;&quot;&gt;&lt;/span&gt;&lt;p role=&quot;presentation&quot; style=&quot;line-height: 1.38; margin-top: 0pt; margin-bottom: 0pt; white-space: pre;&quot; dir=&quot;ltr&quot;&gt;&lt;span style=&quot;font-size: 12pt; font-family: Arial, sans-serif; color: rgb(0, 0, 0); background-color: transparent; font-weight: 400; font-style: normal; font-variant: normal; text-decoration: none; vertical-align: baseline; white-space: pre-wrap;&quot;&gt;&lt;br&gt;&lt;/span&gt;&lt;/p&gt;&lt;p role=&quot;presentation&quot; style=&quot;line-height: 1.38; margin-top: 0pt; margin-bottom: 0pt; white-space: pre;&quot; dir=&quot;ltr&quot;&gt;&lt;span style=&quot;font-size: 12pt; font-family: Arial, sans-serif; color: rgb(0, 0, 0); background-color: transparent; font-weight: 400; font-style: normal; font-variant: normal; text-decoration: none; vertical-align: baseline; white-space: pre-wrap;&quot;&gt;title: str&lt;/span&gt;&lt;/p&gt;&lt;p role=&quot;presentation&quot; style=&quot;line-height: 1.38; margin-top: 0pt; margin-bottom: 0pt; white-space: pre;&quot; dir=&quot;ltr&quot;&gt;&lt;span style=&quot;font-size: 12pt; font-family: Arial, sans-serif; color: rgb(0, 0, 0); background-color: transparent; font-weight: 400; font-style: normal; font-variant: normal; text-decoration: none; vertical-align: baseline; white-space: pre-wrap;&quot;&gt;&lt;br&gt;&lt;/span&gt;&lt;/p&gt;&lt;p role=&quot;presentation&quot; style=&quot;line-height: 1.38; margin-top: 0pt; margin-bottom: 0pt; white-space: pre;&quot; dir=&quot;ltr&quot;&gt;&lt;span style=&quot;font-size: 12pt; font-family: Arial, sans-serif; color: rgb(0, 0, 0); background-color: transparent; font-weight: 400; font-style: normal; font-variant: normal; text-decoration: none; vertical-align: baseline; white-space: pre-wrap;&quot;&gt;author: str&lt;/span&gt;&lt;/p&gt;&lt;br&gt;&lt;/div&gt;&lt;div&gt;cover: Enum: HARD | SOFT&lt;/div&gt;&lt;div&gt;&lt;br&gt;&lt;/div&gt;&lt;div&gt;inventory*: positive int&lt;/div&gt;&lt;div&gt;&lt;br&gt;&lt;/div&gt;&lt;div&gt;daily_fee: decimal ($USD)&lt;/div&gt;&lt;div&gt;&lt;br&gt;&lt;/div&gt;&lt;div&gt;image: str&lt;/div&gt;" style="text;html=1;align=left;verticalAlign=bottom;resizable=0;points=[];autosize=1;strokeColor=none;fillColor=none;fontSize=17;horizontal=1;fontFamily=Tahoma;" parent="33" vertex="1">
          <mxGeometry x="10" y="60" width="230" height="290" as="geometry" />
        </mxCell>
        <mxCell id="10kvHSesLPqrHhUto0nE-77" value="&lt;h1 style=&quot;margin-top: 0px;&quot;&gt;Inventory-&lt;/h1&gt;&lt;div&gt;&lt;span id=&quot;docs-internal-guid-e26cdcc7-7fff-0132-2bde-6cabab8e8db0&quot; style=&quot;font-size: 12pt; font-family: Arial, sans-serif; color: rgb(0, 0, 0); background-color: transparent; font-weight: 400; font-style: normal; font-variant: normal; text-decoration: none; vertical-align: baseline; white-space: pre-wrap;&quot;&gt;the number of this &lt;/span&gt;&lt;span id=&quot;docs-internal-guid-e26cdcc7-7fff-0132-2bde-6cabab8e8db0&quot; style=&quot;font-size: 12pt; font-family: Arial, sans-serif; color: rgb(0, 0, 0); background-color: transparent; font-weight: 400; font-style: normal; font-variant: normal; text-decoration: none; vertical-align: baseline; white-space: pre-wrap;&quot;&gt; specific book available now in the library&lt;/span&gt;&lt;/div&gt;&lt;p&gt;&lt;/p&gt;" style="text;html=1;whiteSpace=wrap;overflow=hidden;rounded=0;" parent="10kvHSesLPqrHhUto0nE-82" vertex="1">
          <mxGeometry y="190" width="180" height="130" as="geometry" />
        </mxCell>
        <mxCell id="10kvHSesLPqrHhUto0nE-83" value="" style="group" parent="1" vertex="1" connectable="0">
          <mxGeometry x="710" y="580" width="500" height="360" as="geometry" />
        </mxCell>
        <mxCell id="7" value="Payment" style="swimlane;whiteSpace=wrap;html=1;fontSize=20;startSize=40;fillColor=#A6C6FF;" parent="10kvHSesLPqrHhUto0nE-83" vertex="1">
          <mxGeometry width="270" height="359.99999999999994" as="geometry">
            <mxRectangle x="510" y="110" width="100" height="30" as="alternateBounds" />
          </mxGeometry>
        </mxCell>
        <mxCell id="8" value="&lt;div align=&quot;left&quot;&gt;&lt;font face=&quot;Helvetica&quot;&gt;id: int&lt;/font&gt;&lt;/div&gt;&lt;div align=&quot;left&quot;&gt;&lt;font face=&quot;Helvetica&quot;&gt;&lt;br&gt;&lt;/font&gt;&lt;/div&gt;&lt;div align=&quot;left&quot;&gt;&lt;div&gt;&lt;font face=&quot;Helvetica&quot;&gt;&lt;u&gt;status: Enum: PENDING | PAID&lt;/u&gt;&lt;/font&gt;&lt;/div&gt;&lt;div&gt;&lt;font face=&quot;Helvetica&quot;&gt;&lt;u&gt;&lt;br&gt;&lt;/u&gt;&lt;/font&gt;&lt;/div&gt;&lt;div&gt;&lt;font face=&quot;Helvetica&quot;&gt;&lt;u&gt;type: Enum: PAYMENT | FINE&lt;/u&gt;&lt;/font&gt;&lt;/div&gt;&lt;div&gt;&lt;font face=&quot;Helvetica&quot;&gt;&lt;u&gt;&lt;br&gt;&lt;/u&gt;&lt;/font&gt;&lt;/div&gt;&lt;div&gt;&lt;font face=&quot;Helvetica&quot;&gt;&lt;u&gt;borrowing: Borrowing (id: int)&lt;/u&gt;&lt;/font&gt;&lt;/div&gt;&lt;div&gt;&lt;font face=&quot;Helvetica&quot;&gt;&lt;u&gt;&lt;br&gt;&lt;/u&gt;&lt;/font&gt;&lt;/div&gt;&lt;div&gt;&lt;font face=&quot;Helvetica&quot;&gt;&lt;u&gt;session_url: URL*&lt;/u&gt;&lt;/font&gt;&lt;/div&gt;&lt;div&gt;&lt;font face=&quot;Helvetica&quot;&gt;&lt;u&gt;&lt;br&gt;&lt;/u&gt;&lt;/font&gt;&lt;/div&gt;&lt;div&gt;&lt;font face=&quot;Helvetica&quot;&gt;&lt;u&gt;session_id**: str&lt;/u&gt;&lt;/font&gt;&lt;/div&gt;&lt;div&gt;&lt;br&gt;&lt;/div&gt;&lt;div&gt;&lt;span id=&quot;docs-internal-guid-07d64dc5-7fff-28a3-6ccd-860fb3764ac9&quot; style=&quot;font-size:12pt;font-family:Arial,sans-serif;color:#000000;background-color:transparent;font-weight:400;font-style:normal;font-variant:normal;text-decoration:none;vertical-align:baseline;white-space:pre;white-space:pre-wrap;&quot;&gt;total_price: decimal ($USD)&lt;/span&gt;&lt;/div&gt;&lt;div&gt;&lt;u&gt;&lt;font face=&quot;Helvetica&quot;&gt;&lt;br&gt;&lt;/font&gt;&lt;/u&gt;&lt;/div&gt;&lt;div&gt;&lt;u&gt;&lt;font face=&quot;Helvetica&quot;&gt;&lt;br&gt;&lt;/font&gt;&lt;/u&gt;&lt;/div&gt;&lt;/div&gt;" style="text;html=1;align=left;verticalAlign=bottom;resizable=0;points=[];autosize=1;strokeColor=none;fillColor=none;fontSize=17;horizontal=1;fontFamily=Tahoma;" parent="7" vertex="1">
          <mxGeometry x="20" y="51.42857142857142" width="260" height="330" as="geometry" />
        </mxCell>
        <mxCell id="10kvHSesLPqrHhUto0nE-79" value="&lt;h1 style=&quot;margin-top: 0px;&quot;&gt;URL-&lt;/h1&gt;&lt;div&gt;&lt;span id=&quot;docs-internal-guid-e26cdcc7-7fff-0132-2bde-6cabab8e8db0&quot; style=&quot;font-size: 12pt; font-family: Arial, sans-serif; color: rgb(0, 0, 0); background-color: transparent; font-weight: 400; font-style: normal; font-variant: normal; text-decoration: none; vertical-align: baseline; white-space: pre-wrap;&quot;&gt;url to stripe payment session&lt;/span&gt;&lt;/div&gt;&lt;p&gt;&lt;/p&gt;" style="text;html=1;whiteSpace=wrap;overflow=hidden;rounded=0;" parent="10kvHSesLPqrHhUto0nE-83" vertex="1">
          <mxGeometry x="290" y="164.57142857142856" width="180" height="102.85714285714285" as="geometry" />
        </mxCell>
        <mxCell id="10kvHSesLPqrHhUto0nE-80" value="&lt;h1 style=&quot;margin-top: 0px;&quot;&gt;&lt;font face=&quot;Helvetica&quot;&gt;&lt;u&gt;session_id&lt;/u&gt;&lt;/font&gt;&lt;/h1&gt;&lt;div&gt;&lt;span id=&quot;docs-internal-guid-c68601a9-7fff-cbfd-fa6e-6963b8cc4018&quot; style=&quot;font-size:12pt;font-family:Arial,sans-serif;color:#000000;background-color:transparent;font-weight:400;font-style:normal;font-variant:normal;text-decoration:none;vertical-align:baseline;white-space:pre;white-space:pre-wrap;&quot;&gt;id of stripe payment session&lt;/span&gt;&lt;/div&gt;&lt;p&gt;&lt;/p&gt;" style="text;whiteSpace=wrap;html=1;" parent="10kvHSesLPqrHhUto0nE-83" vertex="1">
          <mxGeometry x="280" y="267.4285714285714" width="220" height="92.57142857142856" as="geometry" />
        </mxCell>
        <mxCell id="10kvHSesLPqrHhUto0nE-84" value="" style="group" parent="1" vertex="1" connectable="0">
          <mxGeometry x="120" y="590" width="430" height="310" as="geometry" />
        </mxCell>
        <mxCell id="37" value="Borrowing" style="swimlane;whiteSpace=wrap;html=1;fontSize=15;startSize=40;fillColor=#EBF4FF;" parent="10kvHSesLPqrHhUto0nE-84" vertex="1">
          <mxGeometry x="180" width="250" height="300" as="geometry">
            <mxRectangle x="510" y="110" width="100" height="30" as="alternateBounds" />
          </mxGeometry>
        </mxCell>
        <mxCell id="38" value="&lt;div&gt;&lt;u&gt;id&lt;/u&gt;: int&lt;/div&gt;&lt;div&gt;&lt;span style=&quot;background-color: initial;&quot;&gt;&lt;br&gt;&lt;/span&gt;&lt;/div&gt;&lt;div&gt;borrow_date: date&lt;/div&gt;&lt;div&gt;&lt;br&gt;&lt;/div&gt;&lt;div&gt;expected_return_date: date&lt;/div&gt;&lt;div&gt;&lt;br&gt;&lt;/div&gt;&lt;div&gt;actual_return_date: date&lt;/div&gt;&lt;div&gt;&lt;br&gt;&lt;/div&gt;&lt;div&gt;book*: Book (book_id: int)&lt;/div&gt;&lt;div&gt;&lt;br&gt;&lt;/div&gt;&lt;div&gt;user*: User (user_id: int)&lt;/div&gt;" style="text;html=1;align=left;verticalAlign=bottom;resizable=0;points=[];autosize=1;strokeColor=none;fillColor=none;fontSize=17;horizontal=1;fontFamily=Tahoma;" parent="37" vertex="1">
          <mxGeometry x="10" y="50" width="230" height="240" as="geometry" />
        </mxCell>
        <mxCell id="10kvHSesLPqrHhUto0nE-78" value="&lt;h1 style=&quot;margin-top: 0px;&quot;&gt;book/user&lt;/h1&gt;&lt;div&gt;&lt;span id=&quot;docs-internal-guid-e26cdcc7-7fff-0132-2bde-6cabab8e8db0&quot; style=&quot;font-size: 12pt; font-family: Arial, sans-serif; color: rgb(0, 0, 0); background-color: transparent; font-weight: 400; font-style: normal; font-variant: normal; text-decoration: none; vertical-align: baseline; white-space: pre-wrap;&quot;&gt;we need book_id only here (int)&lt;/span&gt;&lt;/div&gt;&lt;p&gt;&lt;/p&gt;" style="text;html=1;whiteSpace=wrap;overflow=hidden;rounded=0;" parent="10kvHSesLPqrHhUto0nE-84" vertex="1">
          <mxGeometry y="180" width="180" height="130" as="geometry" />
        </mxCell>
      </root>
    </mxGraphModel>
  </diagram>
</mxfile>
